<svg width="38" height="37" viewBox="0 0 38 37" fill="none" xmlns="http://www.w3.org/2000/svg">
<path d="M0.36773 19.4079H8.76573V22.3659H0.36773V19.4079Z" fill="#00938A"/>
<path d="M17.5651 32.6814V8.40539H23.9571C26.9265 8.40539 29.1251 9.00606 30.5531 10.2074C32.0038 11.4087 32.7291 13.1541 32.7291 15.4434C32.7291 16.9847 32.3778 18.3107 31.6751 19.4214C30.9725 20.5094 29.9298 21.3481 28.5471 21.9374C27.1871 22.5267 25.4985 22.8214 23.4811 22.8214H20.6251V32.6814H17.5651ZM14.6071 28.0574V25.8474H26.2351V28.0574H14.6071ZM14.6071 22.8214V20.2374H22.3931V22.8214H14.6071ZM23.0391 20.2374C24.4218 20.2374 25.5891 20.0901 26.5411 19.7954C27.5158 19.5007 28.2638 19.0134 28.7851 18.3334C29.3065 17.6534 29.5671 16.7241 29.5671 15.5454C29.5671 14.0041 29.0911 12.8594 28.1391 12.1114C27.1871 11.3634 25.7025 10.9894 23.6851 10.9894H20.6251V20.2374H23.0391Z" fill="#009381"/>
</svg>
