<svg width="413" height="1080" viewBox="0 0 413 1080" fill="none" xmlns="http://www.w3.org/2000/svg">
<path fill-rule="evenodd" clip-rule="evenodd" d="M413 22C413 9.84974 403.15 0 391 0H-13C-25.1503 0 -35 9.84973 -35 22V1058C-35 1070.15 -25.1503 1080 -13 1080H391C403.15 1080 413 1070.15 413 1058V617C413 604.85 403.15 595 391 595H55C43.9543 595 35 586.046 35 575V553C35 541.954 43.9543 533 55 533H391C403.15 533 413 523.15 413 511V22Z" fill="#86F0DD"/>
<path fill-rule="evenodd" clip-rule="evenodd" d="M413 873C355.175 877.781 335.718 896.332 304.456 926.139C284.097 945.551 258.731 969.736 214.5 998C195.058 1010.42 156.238 1020.12 116.764 1029.97C61.7284 1043.72 5.42018 1057.78 -1.42151 1080H391C403.15 1080 413 1070.15 413 1058V873Z" fill="#F3FBFF"/>
<path d="M-13 803.683C181 824.5 109 1028 359 1080H-13V803.683Z" fill="#D2F2FF"/>
<circle cx="101.5" cy="918.5" r="16.5" fill="#F3FBFF"/>
<circle cx="291" cy="948" r="15" fill="#D2F2FF"/>
<circle cx="132.5" cy="853.5" r="23.5" fill="#F3FBFF"/>
<circle cx="83.5" cy="808.5" r="9.5" fill="#F3FBFF"/>
</svg>
