<svg width="1051" height="773" viewBox="0 0 1051 773" fill="none" xmlns="http://www.w3.org/2000/svg">
<path d="M1024 162C1024 189.614 1001.61 212 974 212C946.386 212 924 189.614 924 162C924 134.386 946.386 112 974 112C1001.61 112 1024 134.386 1024 162Z" fill="#D2F2FF" fill-opacity="0.26"/>
<path d="M978 112C978 153.421 944.421 187 903 187C861.579 187 828 153.421 828 112C828 70.5786 861.579 37 903 37C944.421 37 978 70.5786 978 112Z" fill="#D2F2FF" fill-opacity="0.26"/>
<path fill-rule="evenodd" clip-rule="evenodd" d="M354.946 773H281.054C271.152 763.37 265 749.904 265 735C265 705.729 288.729 682 318 682C347.271 682 371 705.729 371 735C371 749.904 364.848 763.37 354.946 773Z" fill="#D2F2FF" fill-opacity="0.26"/>
<path d="M348 653C348 688.899 318.899 718 283 718C247.101 718 218 688.899 218 653C218 617.101 247.101 588 283 588C318.899 588 348 617.101 348 653Z" fill="#D2F2FF" fill-opacity="0.44"/>
<path fill-rule="evenodd" clip-rule="evenodd" d="M0 585.426V464.574C7.42521 461.623 15.5231 460 24 460C59.8985 460 89 489.101 89 525C89 560.899 59.8985 590 24 590C15.5231 590 7.42521 588.377 0 585.426Z" fill="#D2F2FF" fill-opacity="0.26"/>
<path fill-rule="evenodd" clip-rule="evenodd" d="M249.963 773H25C11.1929 773 0 761.807 0 748V607.055C26.873 566.638 72.8257 540 125 540C207.843 540 275 607.157 275 690C275 720.692 265.782 749.231 249.963 773Z" fill="#D2F2FF" fill-opacity="0.42"/>
<path fill-rule="evenodd" clip-rule="evenodd" d="M913.139 0H1026C1039.81 0 1051 11.1929 1051 25V139.53C1035.22 149.94 1016.32 156 996 156C940.772 156 896 111.228 896 56C896 35.2508 902.319 15.9776 913.139 0Z" fill="#D2F2FF" fill-opacity="0.55"/>
<path d="M148.5 536.5C148.5 555.83 132.83 571.5 113.5 571.5C94.17 571.5 78.5 555.83 78.5 536.5C78.5 517.17 94.17 501.5 113.5 501.5C132.83 501.5 148.5 517.17 148.5 536.5Z" fill="#D2F2FF" fill-opacity="0.48"/>
<path d="M207 597C207 608.046 198.046 617 187 617C175.954 617 167 608.046 167 597C167 585.954 175.954 577 187 577C198.046 577 207 585.954 207 597Z" fill="#D2F2FF" fill-opacity="0.26"/>
<path d="M187 511C187 518.732 180.732 525 173 525C165.268 525 159 518.732 159 511C159 503.268 165.268 497 173 497C180.732 497 187 503.268 187 511Z" fill="#D2F2FF" fill-opacity="0.26"/>
<path fill-rule="evenodd" clip-rule="evenodd" d="M168.796 773H25C11.1929 773 0 761.807 0 748V619.401C15.3116 612.711 32.2224 609 50 609C119.036 609 175 664.964 175 734C175 747.618 172.822 760.728 168.796 773Z" fill="#D2F2FF" fill-opacity="0.69"/>
</svg>
