<svg width="1920" height="1080" viewBox="0 0 1920 1080" fill="none" xmlns="http://www.w3.org/2000/svg">
<path d="M0 0H1920V1080H0V0Z" fill="#F1FFFB"/>
<path fill-rule="evenodd" clip-rule="evenodd" d="M343.743 1080C424.465 703.901 729.399 622.282 1030.56 541.674C1334.24 460.39 1634.08 380.134 1696.33 0L1920 0V1080H343.743Z" fill="#DFFFF6"/>
<path fill-rule="evenodd" clip-rule="evenodd" d="M1920 260.521V1080H1089.24C1547.86 959.765 1636.36 734.586 1711.49 543.398C1757.96 425.143 1799.32 319.892 1920 260.521Z" fill="#CDFFF1"/>
<path fill-rule="evenodd" clip-rule="evenodd" d="M1087.33 0L0 0L0 636.542C81.5639 495.631 266.852 368.834 525 343.151C789.329 316.853 998.496 164.591 1087.33 0Z" fill="#DFFFF6"/>
</svg>
